<svg width="224" height="210" viewBox="0 0 224 210" fill="none" xmlns="http://www.w3.org/2000/svg">
    <g clip-path="url(#clip0_13_31)">
        <path
            d="M93.8716 3.28884C124.17 -8.11118 160.723 11.3433 168.707 42.8566C178.643 73.3987 157.593 108.706 126.685 115.562C94.3269 124.997 58.0302 99.4932 55.0937 65.7986C51.4971 39.1475 68.5812 11.792 93.8716 3.31723V3.28884Z"
            fill="#0798A5" />
        <path
            d="M180.26 146.104C174.518 143.077 168.392 140.839 162.049 139.453L161.064 139.26C150.451 136.988 139.37 136.607 128.495 136.738C123.22 136.738 117.933 136.834 112.64 136.868C107.348 136.902 102.055 136.738 96.7626 136.738C85.91 136.607 74.8241 136.982 64.2106 139.26L63.209 139.453C56.8816 140.844 50.7713 143.082 45.0436 146.104C13.8915 161.52 -37.4064 209.915 42.9607 209.983C66.191 210.036 89.4213 210.053 112.652 210.034C135.882 210.034 159.107 210.017 182.325 209.983C259.722 209.915 211.349 161.503 180.26 146.104Z"
            fill="#0798A5" />
    </g>
    <defs>
        <clipPath id="clip0_13_31">
            <rect width="224" height="210" fill="white" />
        </clipPath>
    </defs>
</svg>